<svg xmlns="http://www.w3.org/2000/svg" viewBox="0 0 100 130" width="38" height="50">
  <ellipse cx="50" cy="122" rx="20" ry="6" fill="rgba(0,0,0,0.15)" />
  <path d="M50 2 C23.5 2 2 23.5 2 50 C2 85 45 120 48.5 122.8 C49.4 123.5 50.6 123.5 51.5 122.8 C55 120 98 85 98 50 C98 23.5 76.5 2 50 2 Z" fill="#0e7a52" stroke="#FFFFFF" stroke-width="3" />
  <circle cx="50" cy="50" r="30" fill="#FFFFFF" />
  <g fill="#0e7a52" transform="translate(25, 23) scale(1.15)">
    <!-- S de reciclaje Sabospa -->
    <path d="M 33,12 C 32,5 25,1 18,1 C 10,1 4,7 4,15 C 4,18 5.5,21 8,23 L 3,26 C 0,22.5 -1.5,18 -1.5,14 C -1.5,3.5 7, -3.5 18,-3.5 C 28.5,-3.5 37.5,2 38.5,11 Z" />
    <path d="M 5,20 L -3,23 L 4,29 Z" />
    <path d="M 7,28 C 8,35 15,39 22,39 C 30,39 36,33 36,25 C 36,22 34.5,19 32,17 L 37,14 C 40,17.5 41.5,22 41.5,26 C 41.5,36.5 33,43.5 22,43.5 C 11.5,43.5 2.5,38 1.5,29 Z" />
    <path d="M 35,20 L 43,17 L 36,11 Z" />
  </g>
</svg>
